<svg xmlns="http://www.w3.org/2000/svg" width="1080" height="1920" viewBox="0 0 1080 1920"><defs><linearGradient id="bg" x2="0" y2="1"><stop stop-color="#061824"/><stop offset="1" stop-color="#02080d"/></linearGradient><linearGradient id="grass" x2="0" y2="1"><stop stop-color="#115b38"/><stop offset="1" stop-color="#07351f"/></linearGradient><filter id="g"><feGaussianBlur stdDeviation="22"/></filter></defs><rect width="1080" height="1920" fill="url(#bg)"/><circle cx="110" cy="930" r="260" fill="#22d4ff22" filter="url(#g)"/><circle cx="970" cy="930" r="260" fill="#e7c26422" filter="url(#g)"/><rect x="135" y="350" width="810" height="1220" rx="22" fill="url(#grass)" stroke="#f5fbfa" stroke-width="4"/><g fill="#ffffff06"><rect x="139" y="350" width="806" height="90"/><rect x="139" y="530" width="806" height="90"/><rect x="139" y="710" width="806" height="90"/><rect x="139" y="890" width="806" height="90"/><rect x="139" y="1070" width="806" height="90"/><rect x="139" y="1250" width="806" height="90"/><rect x="139" y="1430" width="806" height="90"/></g><g fill="none" stroke="#fff" stroke-width="4"><line x1="135" y1="960" x2="945" y2="960"/><circle cx="540" cy="960" r="95"/><rect x="330" y="350" width="420" height="220"/><rect x="410" y="350" width="260" height="95"/><rect x="330" y="1350" width="420" height="220"/><rect x="410" y="1475" width="260" height="95"/><rect x="430" y="316" width="220" height="34"/><rect x="430" y="1570" width="220" height="34"/></g><line x1="118" y1="350" x2="118" y2="1570" stroke="#22d4ff" stroke-width="6"/><line x1="962" y1="350" x2="962" y2="1570" stroke="#e7c264" stroke-width="6"/></svg>