<svg xmlns="http://www.w3.org/2000/svg" width="1080" height="1920" viewBox="0 0 1080 1920"><defs><linearGradient id="bg" x2="0" y2="1"><stop stop-color="#061923"/><stop offset="1" stop-color="#02080d"/></linearGradient><linearGradient id="pitch" x2="0" y2="1"><stop stop-color="#0d4c43"/><stop offset="1" stop-color="#06241f"/></linearGradient><filter id="glow"><feGaussianBlur stdDeviation="22"/></filter></defs><rect width="1080" height="1920" fill="url(#bg)"/><circle cx="120" cy="960" r="260" fill="#22d4ff22" filter="url(#glow)"/><circle cx="960" cy="960" r="260" fill="#e7c26422" filter="url(#glow)"/><path d="M170 720H910L1040 1510H40z" fill="url(#pitch)" stroke="#ffffff20"/><g fill="#ffffff08"><path d="M190 760H890L910 830H170z"/><path d="M150 900H930L950 970H130z"/><path d="M110 1040H970L990 1110H90z"/><path d="M70 1180H1010L1020 1250H60z"/></g><g fill="none" stroke="#f4fbff"><rect x="270" y="665" width="540" height="335" stroke-width="8"/><g stroke="#f4fbff38" stroke-width="2"><path d="M315 665v335M365 665v335M415 665v335M465 665v335M515 665v335M565 665v335M615 665v335M665 665v335M715 665v335M765 665v335"/><path d="M270 710h540M270 755h540M270 800h540M270 845h540M270 890h540M270 935h540"/></g></g><rect x="55" y="1500" width="970" height="300" rx="34" fill="#04101be8" stroke="#ffffff18"/><g fill="none" stroke="#ffffff16"><path d="M-130 430Q540 120 1210 430"/><path d="M-130 480Q540 170 1210 480"/></g></svg>